<svg xmlns="http://www.w3.org/2000/svg" width="257.277" height="86" viewBox="0 0 257.277 86">
  <g id="Download_on_the_App_Store_Badge_US-UK_RGB_blk_092917" transform="translate(0 0)">
    <g id="Group_731" data-name="Group 731" transform="translate(0 0)">
      <g id="Group_729" data-name="Group 729">
        <path id="Path_152" data-name="Path 152" d="M236.789,0H20.5c-.788,0-1.567,0-2.354,0-.658,0-1.311.017-1.976.027a28.411,28.411,0,0,0-4.308.38A14.33,14.33,0,0,0,7.775,1.76a13.841,13.841,0,0,0-3.48,2.534A13.456,13.456,0,0,0,1.762,7.779,14.193,14.193,0,0,0,.418,11.871a27.934,27.934,0,0,0-.385,4.3C.013,16.835.011,17.5,0,18.155v49.7c.011.668.013,1.314.033,1.982a27.934,27.934,0,0,0,.385,4.3,14.163,14.163,0,0,0,1.344,4.094A13.347,13.347,0,0,0,4.295,81.7a13.49,13.49,0,0,0,3.48,2.534,14.406,14.406,0,0,0,4.087,1.356,28.927,28.927,0,0,0,4.308.38c.665.015,1.318.023,1.976.023.786,0,1.565,0,2.354,0H236.789c.773,0,1.558,0,2.331,0,.655,0,1.327-.008,1.982-.023a28.547,28.547,0,0,0,4.3-.38,14.629,14.629,0,0,0,4.1-1.356,13.5,13.5,0,0,0,3.477-2.534,13.749,13.749,0,0,0,2.54-3.471,14.2,14.2,0,0,0,1.331-4.094,29.033,29.033,0,0,0,.4-4.3c.008-.668.008-1.315.008-1.982.017-.781.017-1.558.017-2.352v-45c0-.787,0-1.568-.017-2.347,0-.659,0-1.321-.008-1.98a29.036,29.036,0,0,0-.4-4.3,14.228,14.228,0,0,0-1.331-4.092A13.9,13.9,0,0,0,249.5,1.76,14.55,14.55,0,0,0,245.4.411a28.044,28.044,0,0,0-4.3-.38c-.655-.01-1.327-.023-1.982-.027-.773,0-1.558,0-2.331,0Z" transform="translate(0 0)" fill="#a6a6a6"/>
        <path id="Path_153" data-name="Path 153" d="M17.152,83.112c-.655,0-1.294-.008-1.944-.023a27.278,27.278,0,0,1-4.019-.351,12.65,12.65,0,0,1-3.562-1.178,11.622,11.622,0,0,1-3-2.186,11.44,11.44,0,0,1-2.194-3,12.3,12.3,0,0,1-1.167-3.563A26.689,26.689,0,0,1,.9,68.778c-.014-.453-.031-1.963-.031-1.963V17.149S.892,15.663.9,15.226A26.6,26.6,0,0,1,1.26,11.2,12.374,12.374,0,0,1,2.429,7.627,11.553,11.553,0,0,1,4.611,4.622a11.966,11.966,0,0,1,3.015-2.2,12.52,12.52,0,0,1,3.555-1.169A27.06,27.06,0,0,1,15.213.9l1.94-.026H238.105L240.068.9a26.627,26.627,0,0,1,4,.35,12.767,12.767,0,0,1,3.592,1.178,12.026,12.026,0,0,1,5.192,5.2A12.39,12.39,0,0,1,254,11.178a27.944,27.944,0,0,1,.374,4.057c.006.609.006,1.263.006,1.914.017.806.017,1.574.017,2.347v45c0,.781,0,1.543-.017,2.312,0,.7,0,1.34-.008,2A27.369,27.369,0,0,1,254,72.788a12.339,12.339,0,0,1-1.161,3.59,11.782,11.782,0,0,1-2.184,2.979,11.637,11.637,0,0,1-3.009,2.2,12.6,12.6,0,0,1-3.586,1.182,26.967,26.967,0,0,1-4.019.351c-.63.015-1.289.023-1.929.023l-2.331,0Z" transform="translate(1.004 1.007)"/>
      </g>
      <g id="_Group_" data-name="&lt;Group&gt;" transform="translate(21.439 18.749)">
        <g id="_Group_2" data-name="&lt;Group&gt;">
          <g id="_Group_3" data-name="&lt;Group&gt;">
            <path id="_Path_" data-name="&lt;Path&gt;" d="M41.786,27.577a10.64,10.64,0,0,1,5.067-8.927,10.891,10.891,0,0,0-8.581-4.639c-3.61-.379-7.11,2.16-8.95,2.16-1.875,0-4.708-2.123-7.758-2.06a11.428,11.428,0,0,0-9.617,5.865c-4.158,7.2-1.057,17.779,2.927,23.6,1.993,2.849,4.322,6.032,7.369,5.92,2.982-.124,4.1-1.9,7.7-1.9,3.566,0,4.611,1.9,7.721,1.83,3.2-.052,5.216-2.862,7.139-5.739a23.568,23.568,0,0,0,3.265-6.649A10.281,10.281,0,0,1,41.786,27.577Z" transform="translate(-9.972 -2.68)" fill="#fff"/>
            <path id="_Path_2" data-name="&lt;Path&gt;" d="M25.771,16.225a10.476,10.476,0,0,0,2.4-7.5,10.659,10.659,0,0,0-6.9,3.568,9.968,9.968,0,0,0-2.459,7.227A8.813,8.813,0,0,0,25.771,16.225Z" transform="translate(0.17 -8.72)" fill="#fff"/>
          </g>
        </g>
        <g id="Group_730" data-name="Group 730" transform="translate(52.58 19.674)">
          <path id="Path_154" data-name="Path 154" d="M51.358,37.56H41.182l-2.444,7.216h-4.31l9.639-26.7h4.478l9.639,26.7H53.8Zm-9.123-3.33H50.3L46.326,22.519h-.111Z" transform="translate(-34.427 -17.633)" fill="#fff"/>
          <path id="Path_155" data-name="Path 155" d="M64.967,31.287c0,6.049-3.238,9.935-8.123,9.935a6.6,6.6,0,0,1-6.125-3.406h-.092v9.641h-4v-25.9H50.5v3.238h.073a6.9,6.9,0,0,1,6.2-3.441C61.711,21.35,64.967,25.255,64.967,31.287Zm-4.107,0c0-3.941-2.037-6.532-5.144-6.532-3.053,0-5.106,2.646-5.106,6.532,0,3.922,2.053,6.549,5.106,6.549C58.824,37.836,60.86,35.264,60.86,31.287Z" transform="translate(-20.393 -13.875)" fill="#fff"/>
          <path id="Path_156" data-name="Path 156" d="M74.932,31.287c0,6.049-3.238,9.935-8.123,9.935a6.6,6.6,0,0,1-6.125-3.406h-.092v9.641h-4v-25.9h3.867v3.238h.073a6.9,6.9,0,0,1,6.2-3.441C71.676,21.35,74.932,25.255,74.932,31.287Zm-4.107,0c0-3.941-2.037-6.532-5.144-6.532-3.053,0-5.106,2.646-5.106,6.532,0,3.922,2.053,6.549,5.106,6.549,3.107,0,5.144-2.572,5.144-6.549Z" transform="translate(-8.933 -13.875)" fill="#fff"/>
          <path id="Path_157" data-name="Path 157" d="M73.9,37.576c.3,2.648,2.868,4.386,6.383,4.386,3.368,0,5.791-1.738,5.791-4.126,0-2.072-1.461-3.313-4.921-4.164l-3.46-.834c-4.9-1.184-7.179-3.477-7.179-7.2,0-4.607,4.014-7.771,9.715-7.771,5.642,0,9.509,3.164,9.639,7.771H85.832c-.241-2.664-2.444-4.273-5.663-4.273s-5.421,1.627-5.421,4c0,1.888,1.407,3,4.848,3.848l2.942.722c5.478,1.3,7.754,3.5,7.754,7.4,0,4.995-3.979,8.123-10.307,8.123-5.921,0-9.919-3.055-10.177-7.884Z" transform="translate(6.26 -17.871)" fill="#fff"/>
          <path id="Path_158" data-name="Path 158" d="M87.007,19.3v4.607h3.7V27.07h-3.7V37.8c0,1.667.741,2.444,2.368,2.444a12.485,12.485,0,0,0,1.314-.092V43.3a10.972,10.972,0,0,1-2.219.185c-3.941,0-5.478-1.48-5.478-5.255V27.07h-2.83V23.906h2.83V19.3Z" transform="translate(18.168 -16.228)" fill="#fff"/>
          <path id="Path_159" data-name="Path 159" d="M86.065,31.3c0-6.125,3.607-9.973,9.232-9.973,5.644,0,9.234,3.848,9.234,9.973,0,6.141-3.571,9.973-9.234,9.973S86.065,37.445,86.065,31.3Zm14.395,0c0-4.2-1.925-6.681-5.163-6.681s-5.161,2.5-5.161,6.681c0,4.218,1.923,6.679,5.161,6.679s5.163-2.461,5.163-6.679Z" transform="translate(24.956 -13.892)" fill="#fff"/>
          <path id="Path_160" data-name="Path 160" d="M96.186,21.553H100v3.313h.092a4.643,4.643,0,0,1,4.682-3.517,6.162,6.162,0,0,1,1.369.149v3.737a5.586,5.586,0,0,0-1.8-.241,4.026,4.026,0,0,0-4.163,4.478V41.019h-4Z" transform="translate(36.595 -13.875)" fill="#fff"/>
          <path id="Path_161" data-name="Path 161" d="M118.776,35.319c-.538,3.534-3.979,5.959-8.382,5.959-5.663,0-9.177-3.794-9.177-9.881,0-6.106,3.534-10.065,9.009-10.065,5.385,0,8.772,3.7,8.772,9.6V32.3H105.251v.241a5.07,5.07,0,0,0,5.236,5.514,4.4,4.4,0,0,0,4.5-2.738Zm-13.507-5.81H115a4.681,4.681,0,0,0-4.774-4.94,4.928,4.928,0,0,0-4.957,4.94Z" transform="translate(42.381 -13.892)" fill="#fff"/>
        </g>
      </g>
    </g>
    <g id="_Group_4" data-name="&lt;Group&gt;" transform="translate(76.692 18.14)">
      <g id="Group_732" data-name="Group 732">
        <path id="Path_162" data-name="Path 162" d="M40.3,8.739a5.675,5.675,0,0,1,6.036,6.374c0,4.1-2.215,6.454-6.036,6.454H35.671V8.739ZM37.663,19.753h2.419a4.033,4.033,0,0,0,4.231-4.614,4.044,4.044,0,0,0-4.231-4.588H37.663Z" transform="translate(-35.671 -8.107)" fill="#fff"/>
        <path id="Path_163" data-name="Path 163" d="M41.692,15.131a4.586,4.586,0,1,1,9.131,0,4.587,4.587,0,1,1-9.131,0Zm7.166,0c0-2.1-.943-3.326-2.6-3.326s-2.6,1.227-2.6,3.326c0,2.115.934,3.333,2.6,3.333s2.6-1.226,2.6-3.333Z" transform="translate(-28.771 -6.515)" fill="#fff"/>
        <path id="Path_164" data-name="Path 164" d="M57.328,19.876H55.346l-2-7.13h-.151L51.2,19.876H49.238l-2.669-9.681h1.938l1.734,7.387h.143l1.99-7.387h1.833l1.99,7.387h.151l1.726-7.387h1.911Z" transform="translate(-23.138 -6.416)" fill="#fff"/>
        <path id="Path_165" data-name="Path 165" d="M53.854,10.3h1.839v1.538h.143a2.9,2.9,0,0,1,2.889-1.725,3.149,3.149,0,0,1,3.351,3.6v6.267H60.165V14.194c0-1.556-.676-2.33-2.089-2.33a2.221,2.221,0,0,0-2.312,2.453v5.664H53.854Z" transform="translate(-14.761 -6.521)" fill="#fff"/>
        <path id="Path_166" data-name="Path 166" d="M59.094,8.437H61V21.9H59.094Z" transform="translate(-8.735 -8.437)" fill="#fff"/>
        <path id="Path_167" data-name="Path 167" d="M61.229,15.131a4.587,4.587,0,1,1,9.132,0,4.588,4.588,0,1,1-9.132,0Zm7.166,0c0-2.1-.943-3.326-2.6-3.326s-2.6,1.227-2.6,3.326c0,2.115.934,3.333,2.6,3.333s2.6-1.226,2.6-3.333Z" transform="translate(-6.304 -6.516)" fill="#fff"/>
        <path id="Path_168" data-name="Path 168" d="M66.4,17.238c0-1.743,1.3-2.747,3.6-2.89l2.622-.151v-.836c0-1.023-.676-1.6-1.982-1.6-1.067,0-1.806.392-2.018,1.076h-1.85c.2-1.663,1.759-2.729,3.956-2.729,2.427,0,3.8,1.208,3.8,3.253v6.615H72.687V18.616h-.151a3.257,3.257,0,0,1-2.908,1.52,2.925,2.925,0,0,1-3.227-2.9Zm6.223-.827V15.6l-2.364.151c-1.333.089-1.938.543-1.938,1.4,0,.871.756,1.378,1.8,1.378a2.282,2.282,0,0,0,2.507-2.116Z" transform="translate(-0.332 -6.515)" fill="#fff"/>
        <path id="Path_169" data-name="Path 169" d="M71.348,17.053c0-3.059,1.573-5,4.019-5a3.191,3.191,0,0,1,2.969,1.7h.143V8.437h1.911V21.9H78.558v-1.53h-.151a3.36,3.36,0,0,1-3.04,1.689C72.9,22.057,71.348,20.119,71.348,17.053Zm1.974,0c0,2.053.968,3.289,2.587,3.289s2.606-1.253,2.606-3.281-1.006-3.289-2.606-3.289-2.587,1.244-2.587,3.281Z" transform="translate(5.358 -8.437)" fill="#fff"/>
        <path id="Path_170" data-name="Path 170" d="M79.242,15.131a4.586,4.586,0,1,1,9.131,0,4.587,4.587,0,1,1-9.131,0Zm7.166,0c0-2.1-.943-3.326-2.6-3.326s-2.6,1.227-2.6,3.326c0,2.115.934,3.333,2.6,3.333S86.408,17.238,86.408,15.131Z" transform="translate(14.41 -6.515)" fill="#fff"/>
        <path id="Path_171" data-name="Path 171" d="M84.669,10.3h1.839v1.538h.143a2.9,2.9,0,0,1,2.889-1.725,3.149,3.149,0,0,1,3.351,3.6v6.267H90.981V14.194c0-1.556-.676-2.33-2.089-2.33a2.221,2.221,0,0,0-2.312,2.453v5.664H84.669Z" transform="translate(20.677 -6.521)" fill="#fff"/>
        <path id="Path_172" data-name="Path 172" d="M95.36,9.074v2.454h2.1v1.609h-2.1v4.978c0,1.014.418,1.458,1.369,1.458a6.378,6.378,0,0,0,.729-.044v1.591a6.268,6.268,0,0,1-1.039.1c-2.125,0-2.971-.747-2.971-2.614V13.137H91.911V11.528h1.537V9.074Z" transform="translate(29.004 -7.705)" fill="#fff"/>
        <path id="Path_173" data-name="Path 173" d="M95.7,8.437H97.6v5.335h.151a2.979,2.979,0,0,1,2.952-1.734,3.189,3.189,0,0,1,3.334,3.609V21.9h-1.913V16.118c0-1.546-.72-2.33-2.07-2.33a2.262,2.262,0,0,0-2.438,2.454V21.9H95.7Z" transform="translate(33.367 -8.437)" fill="#fff"/>
        <path id="Path_174" data-name="Path 174" d="M109.419,17.362a3.93,3.93,0,0,1-4.2,2.8,4.4,4.4,0,0,1-4.472-5,4.465,4.465,0,0,1,4.464-5.058c2.694,0,4.319,1.84,4.319,4.88v.667H102.7v.107a2.559,2.559,0,0,0,2.578,2.773,2.321,2.321,0,0,0,2.3-1.174Zm-6.721-3.12h4.89a2.336,2.336,0,0,0-2.383-2.508,2.476,2.476,0,0,0-2.507,2.508Z" transform="translate(39.124 -6.516)" fill="#fff"/>
      </g>
    </g>
  </g>
</svg>
