<svg xmlns="http://www.w3.org/2000/svg" xmlns:xlink="http://www.w3.org/1999/xlink" width="257.28" height="86" viewBox="0 0 257.28 86">
  <defs>
    <linearGradient id="linear-gradient" x1="0.915" y1="6.614" x2="-0.383" y2="5.945" gradientUnits="objectBoundingBox">
      <stop offset="0" stop-color="#00a0ff"/>
      <stop offset="0.007" stop-color="#00a1ff"/>
      <stop offset="0.26" stop-color="#00beff"/>
      <stop offset="0.512" stop-color="#00d2ff"/>
      <stop offset="0.76" stop-color="#00dfff"/>
      <stop offset="1" stop-color="#00e3ff"/>
    </linearGradient>
    <linearGradient id="linear-gradient-2" x1="1.076" y1="17.098" x2="-1.305" y2="17.098" gradientUnits="objectBoundingBox">
      <stop offset="0" stop-color="#ffe000"/>
      <stop offset="0.409" stop-color="#ffbd00"/>
      <stop offset="0.775" stop-color="orange"/>
      <stop offset="1" stop-color="#ff9c00"/>
    </linearGradient>
    <linearGradient id="linear-gradient-3" x1="0.862" y1="10.863" x2="-0.501" y2="9.093" gradientUnits="objectBoundingBox">
      <stop offset="0" stop-color="#ff3a44"/>
      <stop offset="1" stop-color="#c31162"/>
    </linearGradient>
    <linearGradient id="linear-gradient-4" x1="-0.188" y1="13.583" x2="0.421" y2="12.793" gradientUnits="objectBoundingBox">
      <stop offset="0" stop-color="#32a071"/>
      <stop offset="0.068" stop-color="#2da771"/>
      <stop offset="0.476" stop-color="#15cf74"/>
      <stop offset="0.801" stop-color="#06e775"/>
      <stop offset="1" stop-color="#00f076"/>
    </linearGradient>
  </defs>
  <g id="Group_733" data-name="Group 733" transform="translate(-10 -10)">
    <path id="Path_192" data-name="Path 192" d="M9.529,0H247.751c5.263,0,9.529,4.813,9.529,10.75v64.5c0,5.937-4.266,10.75-9.529,10.75H9.529C4.266,86,0,81.187,0,75.25V10.75C0,4.813,4.266,0,9.529,0Z" transform="translate(10 10)"/>
    <g id="Group_734" data-name="Group 734" transform="translate(10 10)">
      <g id="Group_733-2" data-name="Group 733">
        <path id="Path_175" data-name="Path 175" d="M257.751,11.72c4.414,0,8,4.051,8,9.03v64.5c0,4.979-3.59,9.03-8,9.03H19.529c-4.414,0-8-4.051-8-9.03V20.75c0-4.979,3.59-9.03,8-9.03H257.751m0-1.72H19.529C14.288,10,10,14.837,10,20.75v64.5C10,91.162,14.288,96,19.529,96H257.751c5.241,0,9.529-4.837,9.529-10.75V20.75c0-5.912-4.288-10.75-9.529-10.75Z" transform="translate(-10 -10)" fill="#a6a6a6"/>
      </g>
    </g>
    <g id="Group_735" data-name="Group 735" transform="translate(89.701 29.893)">
      <path id="Path_176" data-name="Path 176" d="M62.614,23.136a5.029,5.029,0,0,1-1.383,3.719A5.4,5.4,0,0,1,57.139,28.5a5.738,5.738,0,0,1-5.787-5.819,5.738,5.738,0,0,1,5.787-5.819,5.767,5.767,0,0,1,2.287.466,4.583,4.583,0,0,1,1.742,1.246l-.978.978a3.768,3.768,0,0,0-3.05-1.32,4.308,4.308,0,0,0-4.326,4.448,4.381,4.381,0,0,0,7.438,3.206,3.513,3.513,0,0,0,.934-2.258H57.139V22.3h5.4A4.747,4.747,0,0,1,62.614,23.136Z" transform="translate(-51.352 -16.866)" fill="#fff" stroke="#fff" stroke-miterlimit="10" stroke-width="0.2"/>
      <path id="Path_177" data-name="Path 177" d="M65.029,18.368H59.955V21.9h4.575v1.337H59.955v3.533h5.074V28.14h-6.5V17h6.5Z" transform="translate(-45.207 -16.751)" fill="#fff" stroke="#fff" stroke-miterlimit="10" stroke-width="0.2"/>
      <path id="Path_178" data-name="Path 178" d="M67.375,28.14H65.942V18.368h-3.11V17h7.655v1.368H67.375Z" transform="translate(-41.518 -16.751)" fill="#fff" stroke="#fff" stroke-miterlimit="10" stroke-width="0.2"/>
      <path id="Path_179" data-name="Path 179" d="M69.938,28.14V17h1.43V28.14Z" transform="translate(-35.431 -16.751)" fill="#fff" stroke="#fff" stroke-miterlimit="10" stroke-width="0.2"/>
      <path id="Path_180" data-name="Path 180" d="M76.224,28.14H74.793V18.368H71.681V17h7.655v1.368H76.224Z" transform="translate(-33.938 -16.751)" fill="#fff" stroke="#fff" stroke-miterlimit="10" stroke-width="0.2"/>
      <path id="Path_181" data-name="Path 181" d="M88.135,26.816a5.784,5.784,0,0,1-8.167,0,5.7,5.7,0,0,1-1.641-4.131,5.7,5.7,0,0,1,1.641-4.131,5.766,5.766,0,0,1,8.16.007,5.7,5.7,0,0,1,1.649,4.124A5.7,5.7,0,0,1,88.135,26.816Zm-7.111-.934a4.285,4.285,0,0,0,6.053,0,4.36,4.36,0,0,0,1.238-3.2,4.36,4.36,0,0,0-1.238-3.2,4.285,4.285,0,0,0-6.053,0,4.366,4.366,0,0,0-1.237,3.2A4.366,4.366,0,0,0,81.024,25.882Z" transform="translate(-28.245 -16.866)" fill="#fff" stroke="#fff" stroke-miterlimit="10" stroke-width="0.2"/>
      <path id="Path_182" data-name="Path 182" d="M85.575,28.14V17h1.743l5.414,8.665h.061l-.061-2.146V17h1.431V28.14H92.671l-5.665-9.086h-.061l.061,2.148V28.14Z" transform="translate(-22.035 -16.751)" fill="#fff" stroke="#fff" stroke-miterlimit="10" stroke-width="0.2"/>
    </g>
    <path id="Path_183" data-name="Path 183" d="M101.346,35.782a7.9,7.9,0,1,0,7.926,7.9A7.783,7.783,0,0,0,101.346,35.782Zm0,12.681a4.568,4.568,0,0,1-4.458-4.785,4.468,4.468,0,1,1,8.914,0A4.567,4.567,0,0,1,101.346,48.463ZM84.055,35.782a7.9,7.9,0,1,0,7.926,7.9A7.783,7.783,0,0,0,84.055,35.782Zm0,12.681A4.568,4.568,0,0,1,79.6,43.679a4.468,4.468,0,1,1,8.914,0A4.568,4.568,0,0,1,84.055,48.463ZM63.485,38.205v3.349H71.5a6.991,6.991,0,0,1-1.823,4.216,8.207,8.207,0,0,1-6.192,2.453,8.914,8.914,0,0,1,0-17.826,8.54,8.54,0,0,1,6.041,2.393l2.363-2.363a11.688,11.688,0,0,0-8.4-3.381,12.265,12.265,0,1,0,0,24.528,11.207,11.207,0,0,0,8.554-3.44,11.069,11.069,0,0,0,2.9-7.837,10.822,10.822,0,0,0-.18-2.092Zm84.12,2.6c-.657-1.764-2.662-5.024-6.76-5.024-4.068,0-7.447,3.2-7.447,7.9a7.727,7.727,0,0,0,7.837,7.9,7.853,7.853,0,0,0,6.58-3.5l-2.692-1.8a4.511,4.511,0,0,1-3.888,2.183,4.019,4.019,0,0,1-3.83-2.391L147.964,41.7Zm-10.768,2.633a4.332,4.332,0,0,1,4.127-4.606,3.055,3.055,0,0,1,2.932,1.675ZM128.254,51.1h3.468V27.884h-3.468Zm-5.685-13.55h-.119a5.473,5.473,0,0,0-4.157-1.764,7.9,7.9,0,0,0,0,15.793,5.38,5.38,0,0,0,4.157-1.8h.119v1.138c0,3.021-1.613,4.636-4.216,4.636a4.37,4.37,0,0,1-3.979-2.813L111.353,54a7.525,7.525,0,0,0,7,4.666c4.068,0,7.508-2.393,7.508-8.225V36.26h-3.292Zm-3.977,10.917a4.53,4.53,0,0,1-4.4-4.755,4.567,4.567,0,0,1,4.4-4.816c2.363,0,4.216,2.035,4.216,4.816C122.808,46.46,120.955,48.463,118.592,48.463Zm45.267-20.577h-8.3V51.1h3.463V42.3h4.838a7.219,7.219,0,1,0,0-14.417Zm.089,11.186H159.02V31.117h4.927a3.979,3.979,0,1,1,0,7.956Zm21.411-3.333a6.508,6.508,0,0,0-6.183,3.552l3.076,1.285a3.282,3.282,0,0,1,3.166-1.7c1.792,0,3.613,1.075,3.643,2.987V42.1a7.663,7.663,0,0,0-3.613-.895c-3.314,0-6.689,1.821-6.689,5.225,0,3.106,2.718,5.108,5.763,5.108a4.888,4.888,0,0,0,4.421-2.271h.119v1.792H192.4v-8.9C192.4,38.038,189.33,35.74,185.358,35.74Zm-.418,12.72c-1.136,0-2.718-.566-2.718-1.97,0-1.792,1.97-2.479,3.672-2.479a6.18,6.18,0,0,1,3.166.776A4.2,4.2,0,0,1,184.94,48.46Zm19.647-12.213L200.616,46.31H200.5l-4.122-10.063h-3.732l6.181,14.064L195.3,58.134h3.613l9.526-21.888ZM173.383,51.1h3.464V27.886h-3.464Z" transform="translate(38.084 21.748)" fill="#fff"/>
    <g id="Group_737" data-name="Group 737" transform="translate(31.442 30.402)">
      <path id="Path_184" data-name="Path 184" d="M20.831,17.6a3.726,3.726,0,0,0-.858,2.609V61.27a3.723,3.723,0,0,0,.858,2.609l.137.134,23-23v-.542l-23-23Z" transform="translate(-19.973 -16.862)" fill="url(#linear-gradient)"/>
      <path id="Path_185" data-name="Path 185" d="M40.566,41.607,32.9,33.936v-.542l7.67-7.67.173.1,9.084,5.161c2.594,1.474,2.594,3.886,0,5.36L40.74,41.507Z" transform="translate(-8.901 -9.788)" fill="url(#linear-gradient-2)"/>
      <path id="Path_186" data-name="Path 186" d="M51.417,37.843,43.574,30,20.435,53.14c.856.906,2.269,1.017,3.86.113l27.122-15.41" transform="translate(-19.577 -6.124)" fill="url(#linear-gradient-3)"/>
      <path id="Path_187" data-name="Path 187" d="M51.417,33.175,24.295,17.765c-1.591-.9-3-.793-3.86.113L43.574,41.018Z" transform="translate(-19.577 -17.14)" fill="url(#linear-gradient-4)"/>
      <g id="Group_736" data-name="Group 736" transform="translate(0 31.547)">
        <path id="Path_188" data-name="Path 188" d="M51.244,34.132,24.295,49.444c-1.508.858-2.856.8-3.721.02h0l-.139.137h0l.137.136,0,0c.865.78,2.213.837,3.721-.02L51.417,34.3Z" transform="translate(-19.577 -34.132)" opacity="0.2" style="isolation: isolate"/>
        <path id="Path_189" data-name="Path 189" d="M20.831,43.522a3.723,3.723,0,0,1-.858-2.609v.273a3.718,3.718,0,0,0,.858,2.607l.139-.137Z" transform="translate(-19.973 -28.323)" opacity="0.12" style="isolation: isolate"/>
      </g>
      <path id="Path_190" data-name="Path 190" d="M46.286,32.411l-9.257,5.26.173.173,9.084-5.161A3.259,3.259,0,0,0,48.232,30h0A3.455,3.455,0,0,1,46.286,32.411Z" transform="translate(-5.362 -6.124)" opacity="0.12" style="isolation: isolate"/>
      <path id="Path_191" data-name="Path 191" d="M24.691,18.036,60.9,38.608a3.455,3.455,0,0,1,1.946,2.41h0A3.254,3.254,0,0,0,60.9,38.337L24.691,17.765c-2.6-1.474-4.718-.249-4.718,2.722v.273C19.973,17.788,22.1,16.562,24.691,18.036Z" transform="translate(-19.973 -17.14)" fill="#fff" opacity="0.25" style="isolation: isolate"/>
    </g>
  </g>
</svg>
